<svg width="12" height="13" viewBox="0 0 12 13" fill="none" xmlns="http://www.w3.org/2000/svg">
<g clip-path="url(#clip0_58903_40)">
<path d="M9.37485 3.5V9.5C9.37485 9.69891 9.29583 9.88968 9.15518 10.0303C9.01453 10.171 8.82376 10.25 8.62485 10.25H7.87485C7.67594 10.25 7.48517 10.171 7.34452 10.0303C7.20387 9.88968 7.12485 9.69891 7.12485 9.5V6.875H4.87485V9.5C4.87485 9.69891 4.79583 9.88968 4.65518 10.0303C4.51452 10.171 4.32376 10.25 4.12485 10.25H3.37485C3.17594 10.25 2.98517 10.171 2.84452 10.0303C2.70387 9.88968 2.62485 9.69891 2.62485 9.5V3.5C2.62485 3.30109 2.70387 3.11032 2.84452 2.96967C2.98517 2.82902 3.17594 2.75 3.37485 2.75H4.12485C4.32376 2.75 4.51452 2.82902 4.65518 2.96967C4.79583 3.11032 4.87485 3.30109 4.87485 3.5V6.125H7.12485V3.5C7.12485 3.30109 7.20387 3.11032 7.34452 2.96967C7.48517 2.82902 7.67594 2.75 7.87485 2.75H8.62485C8.82376 2.75 9.01453 2.82902 9.15518 2.96967C9.29583 3.11032 9.37485 3.30109 9.37485 3.5ZM1.68735 3.875H1.49985C1.30094 3.875 1.11017 3.95402 0.969517 4.09467C0.828865 4.23532 0.749847 4.42609 0.749847 4.625V6.125H0.387504C0.290597 6.12357 0.196743 6.15889 0.124822 6.22385C0.0529014 6.28882 0.00824893 6.3786 -0.000152619 6.47516C-0.00355852 6.52645 0.00361868 6.5779 0.0209332 6.6263C0.0382477 6.67471 0.0653297 6.71904 0.100497 6.75653C0.135664 6.79403 0.178166 6.82389 0.225362 6.84427C0.272557 6.86465 0.32344 6.87511 0.374847 6.875H0.749847V8.375C0.749847 8.57391 0.828865 8.76468 0.969517 8.90533C1.11017 9.04598 1.30094 9.125 1.49985 9.125H1.68735C1.73708 9.125 1.78477 9.10525 1.81993 9.07008C1.85509 9.03492 1.87485 8.98723 1.87485 8.9375V4.0625C1.87485 4.01277 1.85509 3.96508 1.81993 3.92992C1.78477 3.89475 1.73708 3.875 1.68735 3.875ZM11.9998 6.47516C11.9915 6.37877 11.9469 6.28911 11.8752 6.22417C11.8035 6.15923 11.7099 6.12381 11.6131 6.125H11.2498V4.625C11.2498 4.42609 11.1708 4.23532 11.0302 4.09467C10.8895 3.95402 10.6988 3.875 10.4998 3.875H10.3123C10.2626 3.875 10.2149 3.89475 10.1798 3.92992C10.1446 3.96508 10.1248 4.01277 10.1248 4.0625V8.9375C10.1248 8.98723 10.1446 9.03492 10.1798 9.07008C10.2149 9.10525 10.2626 9.125 10.3123 9.125H10.4998C10.6988 9.125 10.8895 9.04598 11.0302 8.90533C11.1708 8.76468 11.2498 8.57391 11.2498 8.375V6.875H11.6248C11.6763 6.87511 11.7271 6.86465 11.7743 6.84427C11.8215 6.82389 11.864 6.79403 11.8992 6.75653C11.9344 6.71904 11.9614 6.67471 11.9788 6.6263C11.9961 6.5779 12.0033 6.52645 11.9998 6.47516Z" fill="url(#paint0_linear_58903_40)"/>
</g>
<defs>
<linearGradient id="paint0_linear_58903_40" x1="5.99985" y1="2.75" x2="5.99985" y2="10.25" gradientUnits="userSpaceOnUse">
<stop stop-color="#2A2A2A"/>
<stop offset="1" stop-color="#6E6E6E"/>
</linearGradient>
<clipPath id="clip0_58903_40">
<rect width="12" height="12" fill="white" transform="translate(0 0.5)"/>
</clipPath>
</defs>
</svg>
